<svg width="139" height="50" viewBox="0 0 139 50" fill="none" xmlns="http://www.w3.org/2000/svg">
<path d="M138.383 46.8699C138.489 47.1469 138.398 47.4628 138.149 47.6233C137.316 48.1593 136.324 48.5797 135.173 48.8844C133.865 49.2015 132.478 49.36 131.011 49.36C127.206 49.36 124.253 48.3889 122.153 46.4468C120.091 44.5046 119.061 41.6508 119.061 37.8854V24.7461H114.787C114.422 24.7461 114.126 24.4503 114.126 24.0855V18.2722C114.126 17.9073 114.422 17.6116 114.787 17.6116H119.061V10.4837C119.061 10.1189 119.357 9.82312 119.721 9.82312H127.675C128.04 9.82312 128.336 10.1189 128.336 10.4837V17.6116H135.642C136.007 17.6116 136.303 17.9073 136.303 18.2722V24.0855C136.303 24.4503 136.007 24.7461 135.642 24.7461H128.336V37.7665C128.336 39.1141 128.673 40.1645 129.346 40.9175C130.06 41.631 131.051 41.9877 132.319 41.9877C133.449 41.9877 134.45 41.7523 135.321 41.2815C135.71 41.0712 136.223 41.2144 136.381 41.6277L138.383 46.8699Z" fill="url(#paint0_linear_1116_9402)"/>
<path d="M99.4338 17.5587C99.4338 17.1938 99.7296 16.8981 100.094 16.8981H108.048C108.413 16.8981 108.709 17.1938 108.709 17.5587V48.2237C108.709 48.5885 108.413 48.8843 108.048 48.8843H100.094C99.7296 48.8843 99.4338 48.5885 99.4338 48.2237V17.5587Z" fill="url(#paint1_linear_1116_9402)"/>
<path d="M51.7124 8.5878C51.7124 7.85812 52.3039 7.2666 53.0336 7.2666H70.6188C75.1373 7.2666 79.1207 8.13859 82.569 9.88258C86.057 11.5869 88.7522 14.0047 90.6547 17.136C92.5969 20.2672 93.568 23.9137 93.568 28.0755C93.568 32.2373 92.5969 35.8838 90.6547 39.015C88.7522 42.1463 86.057 44.5839 82.569 46.3279C79.1207 48.0322 75.1373 48.8844 70.6188 48.8844H53.0336C52.3039 48.8844 51.7124 48.2929 51.7124 47.5632V8.5878ZM70.1431 40.977C74.3049 40.977 77.6145 39.8276 80.0719 37.5287C82.569 35.1901 83.8175 32.0391 83.8175 28.0755C83.8175 24.1119 82.569 20.9807 80.0719 18.6818C77.6145 16.3432 74.3049 15.174 70.1431 15.174H62.0045C61.6397 15.174 61.3439 15.4697 61.3439 15.8346V40.3164C61.3439 40.6812 61.6397 40.977 62.0045 40.977H70.1431Z" fill="url(#paint2_linear_1116_9402)"/>
<path d="M32.878 39.9663H13.5555L10.0381 48.4761C9.93597 48.7232 9.69497 48.8844 9.4276 48.8844H1.01769C0.539336 48.8844 0.219567 48.3918 0.414307 47.9548L18.2005 8.04993C18.4128 7.5735 18.8856 7.2666 19.4073 7.2666H27.2058C27.7268 7.2666 28.1992 7.57284 28.4119 8.04849L46.2554 47.9541C46.4508 48.3911 46.131 48.8844 45.6523 48.8844H37.0059C36.7386 48.8844 36.4976 48.7232 36.3954 48.4761L32.878 39.9663ZM29.8459 32.6534L23.2465 16.7198L16.6471 32.6534H29.8459Z" fill="url(#paint3_linear_1116_9402)"/>
<ellipse cx="104.375" cy="5.9454" rx="6.606" ry="5.9454" fill="#F6792F"/>
<defs>
<linearGradient id="paint0_linear_1116_9402" x1="114.944" y1="54.8298" x2="142.074" y2="54.0592" gradientUnits="userSpaceOnUse">
<stop stop-color="#8C01FF"/>
<stop offset="1" stop-color="#7300D2"/>
</linearGradient>
<linearGradient id="paint1_linear_1116_9402" x1="101.49" y1="62.2065" x2="114.018" y2="60.5469" gradientUnits="userSpaceOnUse">
<stop stop-color="#8F01FE"/>
<stop offset="1" stop-color="#8B00FF"/>
</linearGradient>
<linearGradient id="paint2_linear_1116_9402" x1="63.2736" y1="60.7338" x2="99.0799" y2="41.3837" gradientUnits="userSpaceOnUse">
<stop stop-color="#9D01F4"/>
<stop offset="1" stop-color="#8B00FF"/>
</linearGradient>
<linearGradient id="paint3_linear_1116_9402" x1="12.8914" y1="60.7338" x2="50.7358" y2="37.9292" gradientUnits="userSpaceOnUse">
<stop stop-color="#D100D1"/>
<stop offset="1" stop-color="#8B00FF"/>
</linearGradient>
</defs>
</svg>
