<svg width="38" height="38" viewBox="0 0 38 38" fill="none" xmlns="http://www.w3.org/2000/svg">
<g clip-path="url(#clip0_1251_3063)">
<path d="M28.5 34.4375H9.5C8.55517 34.4375 7.64903 34.0622 6.98093 33.3941C6.31283 32.726 5.9375 31.8198 5.9375 30.875V19C5.9375 18.6851 6.06261 18.383 6.28531 18.1603C6.50801 17.9376 6.81006 17.8125 7.125 17.8125C7.43994 17.8125 7.74199 17.9376 7.96469 18.1603C8.18739 18.383 8.3125 18.6851 8.3125 19V30.875C8.3125 31.1899 8.43761 31.492 8.66031 31.7147C8.88301 31.9374 9.18506 32.0625 9.5 32.0625H28.5C28.8149 32.0625 29.117 31.9374 29.3397 31.7147C29.5624 31.492 29.6875 31.1899 29.6875 30.875V19C29.6875 18.6851 29.8126 18.383 30.0353 18.1603C30.258 17.9376 30.5601 17.8125 30.875 17.8125C31.1899 17.8125 31.492 17.9376 31.7147 18.1603C31.9374 18.383 32.0625 18.6851 32.0625 19V30.875C32.0625 31.8198 31.6872 32.726 31.0191 33.3941C30.351 34.0622 29.4448 34.4375 28.5 34.4375Z" fill="#3E3E3E"/>
<path d="M17.8125 34.4375H11.875C11.5601 34.4375 11.258 34.3124 11.0353 34.0897C10.8126 33.867 10.6875 33.5649 10.6875 33.25V26.125C10.6875 25.1802 11.0628 24.274 11.7309 23.6059C12.399 22.9378 13.3052 22.5625 14.25 22.5625H15.4375C16.3823 22.5625 17.2885 22.9378 17.9566 23.6059C18.6247 24.274 19 25.1802 19 26.125V33.25C19 33.5649 18.8749 33.867 18.6522 34.0897C18.4295 34.3124 18.1274 34.4375 17.8125 34.4375ZM13.0625 32.0625H16.625V26.125C16.625 25.8101 16.4999 25.508 16.2772 25.2853C16.0545 25.0626 15.7524 24.9375 15.4375 24.9375H14.25C13.9351 24.9375 13.633 25.0626 13.4103 25.2853C13.1876 25.508 13.0625 25.8101 13.0625 26.125V32.0625Z" fill="#3E3E3E"/>
<path d="M29.6875 20.1875C28.4277 20.1875 27.2195 19.6871 26.3287 18.7963C25.4379 17.9055 24.9375 16.6973 24.9375 15.4375C24.9375 15.1226 25.0626 14.8205 25.2853 14.5978C25.508 14.3751 25.8101 14.25 26.125 14.25C26.4399 14.25 26.742 14.3751 26.9647 14.5978C27.1874 14.8205 27.3125 15.1226 27.3125 15.4375C27.3125 16.0674 27.5627 16.6715 28.0081 17.1169C28.4535 17.5623 29.0576 17.8125 29.6875 17.8125C30.3174 17.8125 30.9215 17.5623 31.3669 17.1169C31.8123 16.6715 32.0625 16.0674 32.0625 15.4375V14.535L28.9512 8.3125H9.04875L5.9375 14.535V15.4375C5.9375 16.0674 6.18772 16.6715 6.63312 17.1169C7.07852 17.5623 7.68261 17.8125 8.3125 17.8125C8.94239 17.8125 9.54648 17.5623 9.99188 17.1169C10.4373 16.6715 10.6875 16.0674 10.6875 15.4375C10.6875 15.1226 10.8126 14.8205 11.0353 14.5978C11.258 14.3751 11.5601 14.25 11.875 14.25C12.1899 14.25 12.492 14.3751 12.7147 14.5978C12.9374 14.8205 13.0625 15.1226 13.0625 15.4375C13.0625 16.6973 12.5621 17.9055 11.6713 18.7963C10.7805 19.6871 9.57228 20.1875 8.3125 20.1875C7.05272 20.1875 5.84454 19.6871 4.95374 18.7963C4.06294 17.9055 3.5625 16.6973 3.5625 15.4375V14.25C3.56361 14.0641 3.60836 13.8811 3.69312 13.7156L7.25563 6.59063C7.35431 6.39479 7.50529 6.2301 7.69183 6.11482C7.87838 5.99954 8.09321 5.93816 8.3125 5.9375H29.6875C29.9068 5.93816 30.1216 5.99954 30.3082 6.11482C30.4947 6.2301 30.6457 6.39479 30.7444 6.59063L34.3069 13.7156C34.3916 13.8811 34.4364 14.0641 34.4375 14.25V15.4375C34.4375 16.6973 33.9371 17.9055 33.0463 18.7963C32.1555 19.6871 30.9473 20.1875 29.6875 20.1875Z" fill="#3E3E3E"/>
<path d="M15.4375 20.1875C14.1777 20.1875 12.9695 19.6871 12.0787 18.7963C11.1879 17.9055 10.6875 16.6973 10.6875 15.4375C10.6875 15.1226 10.8126 14.8205 11.0353 14.5978C11.258 14.3751 11.5601 14.25 11.875 14.25C12.1899 14.25 12.492 14.3751 12.7147 14.5978C12.9374 14.8205 13.0625 15.1226 13.0625 15.4375C13.0625 16.0674 13.3127 16.6715 13.7581 17.1169C14.2035 17.5623 14.8076 17.8125 15.4375 17.8125C16.0674 17.8125 16.6715 17.5623 17.1169 17.1169C17.5623 16.6715 17.8125 16.0674 17.8125 15.4375C17.8125 15.1226 17.9376 14.8205 18.1603 14.5978C18.383 14.3751 18.6851 14.25 19 14.25C19.3149 14.25 19.617 14.3751 19.8397 14.5978C20.0624 14.8205 20.1875 15.1226 20.1875 15.4375C20.1875 16.6973 19.6871 17.9055 18.7963 18.7963C17.9055 19.6871 16.6973 20.1875 15.4375 20.1875Z" fill="#3E3E3E"/>
<path d="M22.5625 20.1875C21.3027 20.1875 20.0945 19.6871 19.2037 18.7963C18.3129 17.9055 17.8125 16.6973 17.8125 15.4375C17.8125 15.1226 17.9376 14.8205 18.1603 14.5978C18.383 14.3751 18.6851 14.25 19 14.25C19.3149 14.25 19.617 14.3751 19.8397 14.5978C20.0624 14.8205 20.1875 15.1226 20.1875 15.4375C20.1875 16.0674 20.4377 16.6715 20.8831 17.1169C21.3285 17.5623 21.9326 17.8125 22.5625 17.8125C23.1924 17.8125 23.7965 17.5623 24.2419 17.1169C24.6873 16.6715 24.9375 16.0674 24.9375 15.4375C24.9375 15.1226 25.0626 14.8205 25.2853 14.5978C25.508 14.3751 25.8101 14.25 26.125 14.25C26.4399 14.25 26.742 14.3751 26.9647 14.5978C27.1874 14.8205 27.3125 15.1226 27.3125 15.4375C27.3125 16.6973 26.8121 17.9055 25.9213 18.7963C25.0305 19.6871 23.8223 20.1875 22.5625 20.1875Z" fill="#3E3E3E"/>
<path d="M26.125 26.125H22.5625C22.2476 26.125 21.9455 25.9999 21.7228 25.7772C21.5001 25.5545 21.375 25.2524 21.375 24.9375C21.375 24.6226 21.5001 24.3205 21.7228 24.0978C21.9455 23.8751 22.2476 23.75 22.5625 23.75H26.125C26.4399 23.75 26.742 23.8751 26.9647 24.0978C27.1874 24.3205 27.3125 24.6226 27.3125 24.9375C27.3125 25.2524 27.1874 25.5545 26.9647 25.7772C26.742 25.9999 26.4399 26.125 26.125 26.125Z" fill="#3E3E3E"/>
</g>
<defs>
<clipPath id="clip0_1251_3063">
<rect width="38" height="38" fill="white"/>
</clipPath>
</defs>
</svg>